<svg width="16" height="12" fill="none" xmlns="http://www.w3.org/2000/svg"><mask id="a" fill="#fff"><path d="M14.5 0h-13C.673 0 0 .628 0 1.4v8.402c0 .772.673 1.4 1.5 1.4h13c.827 0 1.5-.628 1.5-1.4V1.4c0-.772-.673-1.4-1.5-1.4zm0 .933c.068 0 .133.014.192.037L8 6.384 1.308.97A.529.529 0 011.5.933h13zm0 9.335h-13c-.276 0-.5-.209-.5-.466V1.956l6.672 5.398A.52.52 0 008 7.468a.52.52 0 00.328-.114L15 1.956v7.846c0 .257-.224.466-.5.466z"/></mask><path d="M14.5 0h-13C.673 0 0 .628 0 1.4v8.402c0 .772.673 1.4 1.5 1.4h13c.827 0 1.5-.628 1.5-1.4V1.4c0-.772-.673-1.4-1.5-1.4zm0 .933c.068 0 .133.014.192.037L8 6.384 1.308.97A.529.529 0 011.5.933h13zm0 9.335h-13c-.276 0-.5-.209-.5-.466V1.956l6.672 5.398A.52.52 0 008 7.468a.52.52 0 00.328-.114L15 1.956v7.846c0 .257-.224.466-.5.466z" fill="#2196F3"/><path d="M14.692.97l.672.83L16.796.641 15.08-.026l-.387.996zM8 6.384l-.672.83.672.544.672-.544L8 6.384zM1.308.97L.921-.027-.797.641.636 1.8 1.308.97zM1 1.956l.672-.831-1.74-1.409v2.24H1zm6.672 5.398L7 8.184v.002l.672-.832zm.656 0l.671.831-.671-.831zM15 1.956h1.069v-2.24l-1.741 1.409.672.83zm0 7.846h1.069H15zm-.5-10.87h-13v2.137h13V-1.07zm-13 0C.153-1.069-1.069-.03-1.069 1.4H1.07c0-.114.124-.331.431-.331V-1.07zM-1.069 1.4v8.402H1.07V1.4H-1.07zm0 8.402c0 1.43 1.222 2.469 2.569 2.469v-2.138c-.307 0-.431-.217-.431-.331H-1.07zM1.5 12.27h13v-2.138h-13v2.138zm13 0c1.347 0 2.569-1.039 2.569-2.47H14.93c0 .115-.124.332-.431.332v2.138zm2.569-2.47v-8.4H14.93v8.4h2.138zm0-8.4c0-1.431-1.222-2.47-2.569-2.47V1.07c.307 0 .431.217.431.331h2.138zm-2.569.601a.541.541 0 01-.196-.036l.775-1.992a1.596 1.596 0 00-.579-.11v2.138zM14.02.14L7.327 5.553l1.344 1.661L15.364 1.8 14.019.14zM8.671 5.553L1.981.139.636 1.8l6.692 5.413 1.344-1.661zM1.695 1.966a.54.54 0 01-.195.036V-.135c-.207 0-.403.04-.579.108l.774 1.993zm-.195.036h13V-.135h-13v2.137zm13 7.198h-13v2.137h13V9.2zm-13 0c.244 0 .569.2.569.602H-.07c0 .916.773 1.535 1.569 1.535V9.2zm.569.602V1.956H-.07v7.846H2.07zM.328 2.787L7 8.185l1.345-1.662-6.673-5.398L.328 2.787zM7 8.186c.296.239.654.35.999.35V6.4c.112 0 .236.036.344.123L7 8.186zm.999.35a1.59 1.59 0 001-.35L7.655 6.522A.548.548 0 018 6.399v2.138zm1-.351l6.672-5.398-1.344-1.662-6.673 5.398L9 8.185zm4.931-6.23v7.847h2.138V1.956H13.93zm0 7.847c0-.401.325-.602.569-.602v2.137c.796 0 1.569-.62 1.569-1.535H13.93z" fill="#000" mask="url(#a)"/></svg>