<!-- Generated by IcoMoon.io -->
<svg version="1.1" xmlns="http://www.w3.org/2000/svg" width="43" height="32" viewBox="0 0 43 32">
<title>envelope-hover</title>
<path fill="#2196f3" d="M38.667 0h-34.667c-2.205 0-4 1.675-4 3.733v22.405c0 2.059 1.795 3.733 4 3.733h34.667c2.205 0 4-1.675 4-3.733v-22.405c0-2.059-1.795-3.733-4-3.733zM38.667 2.488c0.181 0 0.355 0.037 0.512 0.099l-17.845 14.437-17.845-14.437c0.152-0.062 0.327-0.098 0.512-0.099h34.667zM38.667 27.381h-34.667c-0.736 0-1.333-0.557-1.333-1.243v-20.923l17.792 14.395c0.235 0.189 0.537 0.304 0.866 0.304 0.003 0 0.006 0 0.009-0h-0c0.002 0 0.005 0 0.008 0 0.329 0 0.631-0.115 0.869-0.306l-0.003 0.002 17.792-14.395v20.923c0 0.685-0.597 1.243-1.333 1.243z"></path>
<path fill="#000" d="M39.179 2.587l1.792 2.213 3.819-3.091-4.576-1.779-1.032 2.656zM21.333 17.024l-1.792 2.213 1.792 1.451 1.792-1.451-1.792-2.213zM3.488 2.587l-1.032-2.659-4.581 1.781 3.821 3.091 1.792-2.213zM2.667 5.216l1.792-2.216-4.64-3.757v5.973h2.848zM20.459 19.611l-1.792 2.213v0.005l1.792-2.219zM22.208 19.611v0zM40 5.216h2.851v-5.973l-4.643 3.757 1.792 2.213zM40 26.139v0zM38.667-2.848h-34.667v5.699h34.667v-5.704zM4-2.848c-3.592-0.003-6.851 2.768-6.851 6.581h5.704c0-0.304 0.331-0.883 1.149-0.883v-5.704zM-2.851 3.733v22.405h5.704v-22.405h-5.707zM-2.851 26.139c0 3.813 3.259 6.584 6.851 6.584v-5.701c-0.819 0-1.149-0.579-1.149-0.883h-5.704zM4 32.72h34.667v-5.701h-34.667v5.701zM38.667 32.72c3.592 0 6.851-2.771 6.851-6.587h-5.704c0 0.307-0.331 0.885-1.149 0.885v5.701zM45.517 26.133v-22.4h-5.704v22.4h5.701zM45.517 3.733c0-3.816-3.259-6.587-6.851-6.587v5.707c0.819 0 1.149 0.579 1.149 0.883h5.701zM38.667 5.336c-0.002 0-0.003 0-0.005 0-0.186 0-0.364-0.035-0.527-0.099l0.010 0.003 2.067-5.312c-0.458-0.185-0.988-0.292-1.544-0.293h-0v5.701zM37.387 0.373l-17.848 14.435 3.584 4.429 17.848-14.437-3.587-4.427zM23.123 14.808l-17.84-14.437-3.587 4.429 17.845 14.435 3.584-4.429zM4.52 5.243c-0.153 0.061-0.331 0.096-0.517 0.096-0.001 0-0.002 0-0.003 0h0v-5.699c-0.552 0-1.075 0.107-1.544 0.288l2.064 5.315zM4 5.339h34.667v-5.699h-34.667v5.699zM38.667 24.533h-34.667v5.699h34.667v-5.699zM4 24.533c0.651 0 1.517 0.533 1.517 1.605h-5.704c0 2.443 2.061 4.093 4.184 4.093v-5.699zM5.517 26.139v-20.923h-5.704v20.923h5.707zM0.875 7.432l17.792 14.395 3.587-4.432-17.795-14.395-3.584 4.432zM18.667 21.829c0.789 0.637 1.744 0.933 2.664 0.933v-5.696c0.299 0 0.629 0.096 0.917 0.328l-3.581 4.435zM21.331 22.763c0.004 0 0.008 0 0.013 0 1.008 0 1.934-0.352 2.662-0.94l-0.008 0.006-3.584-4.437c0.249-0.204 0.57-0.327 0.92-0.328h0v5.701zM23.997 21.827l17.792-14.395-3.584-4.432-17.795 14.395 3.589 4.432zM37.147 5.213v20.925h5.701v-20.923h-5.701zM37.147 26.139c0-1.069 0.867-1.605 1.517-1.605v5.699c2.123 0 4.184-1.653 4.184-4.093h-5.701z"></path>
</svg>
