<!-- Generated by IcoMoon.io -->
<svg version="1.1" xmlns="http://www.w3.org/2000/svg" width="32" height="32" viewBox="0 0 32 32">
<title>envelope</title>
<path fill="#757575" d="M29 4h-26c-1.654 0-3 1.256-3 2.801v16.803c0 1.544 1.346 2.801 3 2.801h26c1.654 0 3-1.256 3-2.801v-16.803c0-1.544-1.346-2.801-3-2.801zM29 5.867c0.136 0 0.265 0.026 0.383 0.072l-13.383 10.828-13.383-10.828c0.118-0.046 0.247-0.072 0.383-0.072h26zM29 24.537h-26c-0.552 0-1-0.418-1-0.934v-15.692l13.345 10.796c0.188 0.152 0.422 0.228 0.655 0.228s0.467-0.076 0.655-0.228l13.345-10.796v15.692c0 0.515-0.448 0.934-1 0.934z"></path>
</svg>
