<svg width="16" height="12" viewBox="0 0 16 12" fill="none" xmlns="http://www.w3.org/2000/svg">
<mask id="path-1-inside-1" fill="white">
<path d="M14.5 0H1.50001C0.672854 0 0 0.628107 0 1.40026V9.80173C0 10.5739 0.672854 11.202 1.50001 11.202H14.5C15.3271 11.202 16 10.5739 16 9.80173V1.40026C16 0.628107 15.3271 0 14.5 0V0ZM14.5 0.933493C14.5679 0.933493 14.6325 0.94665 14.6916 0.969628L8 6.38361L1.30833 0.969628C1.36742 0.946681 1.43204 0.933493 1.49998 0.933493H14.5ZM14.5 10.2685H1.50001C1.22414 10.2685 0.999996 10.0593 0.999996 9.80169V1.95587L7.67236 7.35402C7.76661 7.43013 7.8833 7.46798 8 7.46798C8.1167 7.46798 8.23339 7.43016 8.32764 7.35402L15 1.95587V9.80173C15 10.0593 14.7759 10.2685 14.5 10.2685V10.2685Z"/>
</mask>
<path d="M14.5 0H1.50001C0.672854 0 0 0.628107 0 1.40026V9.80173C0 10.5739 0.672854 11.202 1.50001 11.202H14.5C15.3271 11.202 16 10.5739 16 9.80173V1.40026C16 0.628107 15.3271 0 14.5 0V0ZM14.5 0.933493C14.5679 0.933493 14.6325 0.94665 14.6916 0.969628L8 6.38361L1.30833 0.969628C1.36742 0.946681 1.43204 0.933493 1.49998 0.933493H14.5ZM14.5 10.2685H1.50001C1.22414 10.2685 0.999996 10.0593 0.999996 9.80169V1.95587L7.67236 7.35402C7.76661 7.43013 7.8833 7.46798 8 7.46798C8.1167 7.46798 8.23339 7.43016 8.32764 7.35402L15 1.95587V9.80173C15 10.0593 14.7759 10.2685 14.5 10.2685V10.2685Z" fill="#2196F3"/>
<path d="M14.6916 0.969628L15.3639 1.8005L16.7964 0.641465L15.079 -0.0264567L14.6916 0.969628ZM8 6.38361L7.32777 7.21449L8 7.75837L8.67224 7.21449L8 6.38361ZM1.30833 0.969628L0.9214 -0.0266342L-0.797224 0.640855L0.636101 1.80051L1.30833 0.969628ZM0.999996 1.95587L1.67221 1.12498L-0.0687683 -0.283526V1.95587H0.999996ZM7.67236 7.35402L7.00014 8.18491L7.00093 8.18555L7.67236 7.35402ZM8.32764 7.35402L8.99924 8.18542L8.99986 8.18491L8.32764 7.35402ZM15 1.95587H16.0688V-0.283526L14.3278 1.12498L15 1.95587ZM15 9.80173L16.0688 9.80186V9.80173H15ZM14.5 -1.06876H1.50001V1.06876H14.5V-1.06876ZM1.50001 -1.06876C0.153058 -1.06876 -1.06876 -0.030239 -1.06876 1.40026H1.06876C1.06876 1.28645 1.19265 1.06876 1.50001 1.06876V-1.06876ZM-1.06876 1.40026V9.80173H1.06876V1.40026H-1.06876ZM-1.06876 9.80173C-1.06876 11.2322 0.153058 12.2707 1.50001 12.2707V10.1332C1.19265 10.1332 1.06876 9.91553 1.06876 9.80173H-1.06876ZM1.50001 12.2707H14.5V10.1332H1.50001V12.2707ZM14.5 12.2707C15.8469 12.2707 17.0688 11.2322 17.0688 9.80173H14.9312C14.9312 9.91553 14.8074 10.1332 14.5 10.1332V12.2707ZM17.0688 9.80173V1.40026H14.9312V9.80173H17.0688ZM17.0688 1.40026C17.0688 -0.0302396 15.8469 -1.06876 14.5 -1.06876V1.06876C14.8074 1.06876 14.9312 1.28645 14.9312 1.40026H17.0688ZM14.5 2.00226C14.4289 2.00226 14.3624 1.98834 14.3042 1.96571L15.079 -0.0264567C14.9027 -0.0950385 14.707 -0.135271 14.5 -0.135271V2.00226ZM14.0194 0.138752L7.32776 5.55274L8.67224 7.21449L15.3639 1.8005L14.0194 0.138752ZM8.67223 5.55274L1.98057 0.13875L0.636101 1.80051L7.32777 7.21449L8.67223 5.55274ZM1.69527 1.96589C1.6377 1.98825 1.57143 2.00226 1.49998 2.00226V-0.135271C1.29266 -0.135271 1.09713 -0.0948848 0.9214 -0.0266342L1.69527 1.96589ZM1.49998 2.00226H14.5V-0.135271H1.49998V2.00226ZM14.5 9.19969H1.50001V11.3372H14.5V9.19969ZM1.50001 9.19969C1.74388 9.19969 2.06876 9.40086 2.06876 9.80169H-0.0687683C-0.0687683 10.7176 0.704386 11.3372 1.50001 11.3372V9.19969ZM2.06876 9.80169V1.95587H-0.0687683V9.80169H2.06876ZM0.327779 2.78677L7.00014 8.18491L8.34457 6.52313L1.67221 1.12498L0.327779 2.78677ZM7.00093 8.18555C7.29737 8.42492 7.65495 8.53674 8 8.53674V6.39921C8.11166 6.39921 8.23585 6.43534 8.34379 6.52249L7.00093 8.18555ZM8 8.53674C8.34487 8.53674 8.70258 8.42505 8.99924 8.18542L7.65605 6.52263C7.7642 6.43526 7.88852 6.39921 8 6.39921V8.53674ZM8.99986 8.18491L15.6722 2.78677L14.3278 1.12498L7.65543 6.52313L8.99986 8.18491ZM13.9312 1.95587V9.80173H16.0688V1.95587H13.9312ZM13.9312 9.80159C13.9313 9.40091 14.256 9.19969 14.5 9.19969V11.3372C15.2957 11.3372 16.0686 10.7176 16.0688 9.80186L13.9312 9.80159Z" fill="black" mask="url(#path-1-inside-1)"/>
</svg>
